# xmcd
#
# Track frame offsets:
# 187
# 22332
# 38775
# 60857
#
# Disc length: 1167 seconds
#
#
# Revision: 0
# Processed by: cddbd v1.5.1PL0 Copyright (c) Steve Scherf et al.
# Submitted via: FreeRIP 2.91 
#
DISCID=2b048d04
DTITLE=Black Market Flowers  - Gladiola Flower Petal 2
DYEAR=1993
DGENRE=Noise
TTITLE0=Sympathize
TTITLE1=Hurry Home
TTITLE2=I'll Awake
TTITLE3=Cinnamon Girl
EXTD=
EXTT0=
EXTT1=
EXTT2=
EXTT3=
PLAYORDER=
